<svg fill="none" xmlns="http://www.w3.org/2000/svg" width="22" height="22" viewBox="0 0 22 22"><path fill-rule="evenodd" clip-rule="evenodd" d="M0 2.06c0 .6.45 1.08 1 1.08h2.17l3.06 7.04v.01l-1.05 2.5a2.2 2.2 0 001 2.84c.26.12.54.19.82.19h10.5c.55 0 1-.48 1-1.08 0-.59-.45-1.07-1-1.07H7l.67-1.59h9.04l4.23-7.9c.27-.52.1-1.17-.37-1.47a.96.96 0 00-1.37.4l-3.65 6.83H8.3L4.45.99H1c-.55 0-1 .48-1 1.07zM10 19.2c0 1.19-.9 2.15-2 2.15s-2-.96-2-2.15c0-1.18.9-2.14 2-2.14s2 .96 2 2.14zm6 2.15c1.1 0 2-.96 2-2.15 0-1.18-.9-2.14-2-2.14s-2 .96-2 2.14c0 1.19.9 2.15 2 2.15z" fill="#9B8869"/></svg>
