<svg fill="none" xmlns="http://www.w3.org/2000/svg" width="184" height="30" viewBox="0 0 184 30"><path fill-rule="evenodd" clip-rule="evenodd" d="M10.62 10.5c0 .4 1.84 1.18 2.97 1.18 2.16 0 4.5-2.9 4.5-5.97 0-2.93-2.1-5-5.04-5C7.18.7 0 9.1 0 15.84c0 4.53 3.25 8.34 7.1 8.34 2.74 0 5.72-1.92 8.32-5.11a7 7 0 00-.28 1.4c0 1.13 2.29 2.2 2.95 2.2.2 0 .32-.08.32-.38 0-1.28 2.5-5.66 4.88-8.72-.91 2.05-1.88 5.32-1.88 7.11 0 .94 1.79 2 3.65 2 .29 0 1.73-1.95 3.2-4.12.04 2.28 1.58 4.12 3.4 4.12 2.47 0 5.12-3.35 5.8-6.76.54 0 1.1-.11 1.63-.3-1.62 4.56-3.43 10.56-3.43 11.33 0 .84 2.21 2.35 3.26 2.35.3 0 .52-.15.52-.43 0-.16-.05-.23-.18-.23-.12 0-.2-.13-.2-.39 0-.95 1-3.92 2.42-6.89.39.55 2.14 1.32 3.23 1.32 2.8 0 5.96-5.17 5.96-10.03 0-.73-2-2.27-2.89-2.27-1.43 0-3.86 3.85-5.59 7.11.88-2.62 2.05-5.37 2.41-5.37.07 0 .14-.09.14-.18 0-.55-2.2-1.56-3.32-1.56-.29 0-1 1.64-1.84 3.88-.58.37-1.27.58-1.98.58.02-.19.02-.37.02-.55 0-.44-.04-.85-.11-1.18.03.02.09.04.14.04.18 0 .43-.22.43-.59 0-1.1-2.25-2.38-4.13-2.38-1.66 0-3.84 2.47-4.96 5.13-1.58 2.33-3.89 5.68-4.06 5.68-.04 0-.05-.1-.05-.29 0-2.09 2.35-8 3.05-8 .1 0 .23-.17.23-.36 0-.79-2.53-1.98-3.1-1.98-1.04 0-3.92 3.7-5.77 6.97 1.75-4.84 4.85-11.82 5.64-11.82.1 0 .2-.11.2-.24 0-.59-2.04-1.6-3.11-1.6-1.01 0-3.66 6.5-5.36 11.44-2.72 4.28-6.43 7.02-9.8 7.02-2.49 0-3.95-1.45-3.95-3.92 0-5.8 8.16-15.29 13.27-15.29 0 3.41-2.97 7.39-5.13 7.39-.32 0-.43.09-.43.18zm23.62 3.02a10.4 10.4 0 00-2.52 6.23c0 1.11.34 1.37.75 1.37 1.36 0 3.2-2.84 3.82-5.4-1.1-.37-1.92-1.21-2.05-2.2zm2.23 1.11c.02-.18.02-.34.02-.51 0-.84-.21-1.25-.48-1.25-.23 0-.43.24-.43.63 0 .5.34.9.9 1.13zm5.2 6.3c1.06-2.08 4.8-8.68 5.79-9.41 0 4.78-2.86 9.25-5.79 9.42zM54.9 17.5c1.73-3.26 4.16-7.1 5.59-7.1.89 0 2.89 1.53 2.89 2.26 0 4.86-3.16 10.03-5.97 10.03-1.09 0-2.84-.77-3.23-1.32-1.4 2.97-2.4 5.94-2.4 6.89 0 .26.06.39.19.39.12 0 .18.07.18.23 0 .28-.22.43-.52.43-1.05 0-3.27-1.5-3.27-2.35 0-1.27 4.88-16.57 5.77-16.57 1.12 0 3.32 1.01 3.32 1.56 0 .1-.07.18-.14.18-.36 0-1.54 2.75-2.41 5.37zm-.52 3.45c1.05-2.1 4.8-8.69 5.78-9.42 0 4.78-2.85 9.25-5.78 9.42zm19.18-7.7c0-1.48-1.83-2.88-3.42-2.88-2.85 0-6.39 4.5-6.39 7.8 0 2.54 2.1 4.52 4.07 4.52 1.84 0 3.81-1.69 5.45-3.6a6.29 6.29 0 00-.24 1.25c0 1.25 2.57 2.35 3.23 2.35.2 0 .33-.1.33-.39 0-1.24 2.35-5.42 4.7-8.46-.2.55-.31 1.13-.31 1.66 0 .77 2.23 2 3.64 2 .68 0 4.77-4.21 4.73-4.9-.01-.14-.21-.34-.43-.34-.26 0-.57.26-.78.51-.48.6-3.36 3.45-3.6 3.45-.04 0-.06-.06-.06-.2 0-1.05.87-3.17 1.5-3.17.2 0 .37-.22.37-.44 0-.83-2.53-2.02-3.14-2.02-1.02 0-3.78 3.58-5.66 6.78.91-2.5 2.09-5.02 2.45-5.02.05 0 .12-.1.12-.2 0-.68-2.36-1.56-3.18-1.56-.5 0-1.65 2.65-2.57 5.24-1.67 2.39-4.23 5.5-6.01 5.5-.8 0-1.3-.64-1.3-1.7 0-2.53 2.78-6.01 4.73-6.23-.32 2.25-2.61 3.8-3.77 3.8-.23 0-.36.06-.36.14 0 .23 1.06.77 1.77.77 1.4 0 4.13-2.13 4.13-4.66zm29.42-5.13c0 .3-.18.46-.3.46-.42 0-1.48 1.65-2.64 3.9 5.64-.42 9.46-2.41 9.46-5.11 0-2.22-2.6-3.67-6.68-3.67-6.06 0-11.48 3.2-11.48 6.83 0 1.45.85 2.6 2.05 2.6.47 0 .74.19.74.38 0 .23-.36.46-1.11.46-2.03 0-3.37-1.74-3.37-4.06 0-4.85 5.82-9.2 13.18-9.2 5.56 0 9.35 2.45 9.35 6.07 0 2.67-2.06 4.76-5.55 5.99 2.08.65 3.31 2.14 3.31 4.29 0 4.24-4.78 8.36-9.67 8.36-1.6 0-3.28-.6-4.82-1.69-.07.36-.1.66-.1.9 0 .6-.22.77-.54.77-.95 0-2.42-1.5-2.42-2.77 0-2.55 6.16-16.8 7.67-16.8 1.32 0 2.92 1.4 2.92 2.29zm.86 5.66c-1.42 0-3.1.32-4.95 1a60.29 60.29 0 00-3.08 7.53c.83.38 1.76.57 2.76.57 4.26 0 9.24-3.42 9.24-6.46 0-1.69-1.55-2.64-3.97-2.64zm20.03-9.28c-.92 0-3.83 6.68-5.6 11.52-1.59 2.2-3.83 5.25-4 5.25-.03 0-.05-.11-.05-.2 0-.87 2.2-7.97 2.89-7.97.07 0 .18-.1.18-.26 0-.71-1.94-1.87-2.96-1.87-.82 0-3.8 8.47-3.8 9.8 0 1.1 1.97 2.13 3.84 2.13.25 0 1.38-1.39 2.64-3.1-.12.44-.18.77-.18.95 0 1.08 2.3 2.15 2.94 2.15.2 0 .32-.09.32-.37 0-.68.7-2.19 1.72-3.9.38 2.21 2.61 4.27 4.85 4.27.3 0 1.7-1.8 3.15-3.83.28 2.2 2.2 3.83 4.04 3.83 2.65 0 5.56-3.36 7.39-5.92.35.62.83 1.29 1.39 1.9l-.8.4c-2.52 1.12-3.38 2.34-3.38 3.4 0 1.62 1.97 2.88 3.16 2.88 1.46 0 4.78-2 4.78-3.8 0-.78-.63-1.88-1.26-2.93 1.41-.8 2.95-1.73 4.26-2.56-.75 2.18-1.27 3.95-1.27 4.48 0 1.1 2.3 2.15 2.96 2.15.2 0 .32-.09.32-.37 0-1.25 2.5-5.49 4.89-8.45-.91 1.99-1.88 5.14-1.88 6.88 0 .9 1.79 1.94 3.65 1.94.3 0 1.74-1.89 3.22-3.99.04 2.21 1.58 3.99 3.42 3.99 2.47 0 5.12-3.25 5.8-6.55.55 0 1.1-.1 1.64-.28-1.63 4.41-3.44 10.22-3.44 10.96 0 .82 2.22 2.28 3.27 2.28.3 0 .52-.15.52-.41 0-.16-.05-.23-.17-.23-.13 0-.2-.13-.2-.38 0-.92 1-3.8 2.42-6.67.39.53 2.15 1.28 3.24 1.28 2.81 0 5.98-5 5.98-9.7 0-.72-2-2.21-2.9-2.21-1.44 0-3.87 3.73-5.6 6.89.87-2.54 2.05-5.2 2.41-5.2.07 0 .14-.1.14-.18 0-.53-2.2-1.51-3.33-1.51-.3 0-1.01 1.58-1.85 3.76-.58.35-1.27.55-1.99.55.02-.17.02-.35.02-.53 0-.43-.03-.82-.1-1.14.03.02.08.04.14.04.18 0 .43-.21.43-.57 0-1.06-2.26-2.3-4.14-2.3-1.67 0-3.86 2.39-4.98 4.96-1.58 2.26-3.9 5.5-4.07 5.5-.04 0-.06-.1-.06-.28 0-2.02 2.37-7.75 3.07-7.75.1 0 .23-.16.23-.34 0-.76-2.54-1.92-3.12-1.92-1.04 0-3.92 3.59-5.78 6.75 1.75-4.69 4.87-11.45 5.66-11.45.1 0 .2-.1.2-.23 0-.57-2.05-1.54-3.12-1.54-.95 0-3.34 5.49-5.04 10.12-1.46.94-3.57 2.22-5.44 3.26a3.67 3.67 0 01-.62-1.5c0-1.11 2.77-3.54 3.92-3.54.36 0 .75.24.75.55 0 .17.13.3.27.3.2 0 .43-.2.43-.73 0-1.54-2.02-2.82-3.24-2.82-1.94 0-5.43 3.23-5.43 5.06 0 .14.02.3.07.49-1.66 2.34-4.41 5.7-6.3 5.7-.8 0-1.3-.62-1.3-1.65 0-2.45 2.79-5.82 4.74-6.03-.32 2.18-2.61 3.69-3.78 3.69-.23 0-.36.05-.36.12 0 .23 1.06.75 1.78.75 1.4 0 4.13-2.06 4.13-4.51 0-1.44-1.82-2.79-3.42-2.79-2.28 0-4.99 2.76-6 5.5-1.53 2.16-3.45 4.8-3.6 4.8-.87 0-1.56-1.37-1.56-2.54 2.07 0 4.78-4.28 4.78-5.93 0-.51-2.19-1.83-2.89-1.83-1.14 0-4 3.48-5.87 6.6 1.79-4.68 4.92-11.37 5.7-11.37.1 0 .24-.14.24-.27 0-.46-2.05-1.43-3.11-1.43zm-5.67 5.67c0 .22-.04.36-.65.36-1.45 0-2.47-.85-2.47-2 0-1.48 1.61-4.03 2.6-4.03.68 0 2.6 1.18 2.6 1.73 0 .13-.13.27-.27.27-.65 0-1.81 2.52-1.81 3.67zm4.43 7.16a33.41 33.41 0 013.46-4.55c.02 0 .02.06.02.14 0 1.2-2 4.53-3.1 4.53a.73.73 0 01-.38-.12zm17.38 5.9c-.36 0-.6-.15-.6-.46 0-.5.7-1.36 2.9-2.4l.94-.49c.16.3.25.57.25.8 0 1.14-2.45 2.56-3.49 2.56zm24.74-3.17a9.88 9.88 0 012.53-6.03c.12.95.95 1.77 2.06 2.12-.63 2.49-2.48 5.24-3.84 5.24-.4 0-.75-.25-.75-1.33zm4.78-5.45l-.01.5c-.56-.23-.9-.62-.9-1.1 0-.38.2-.6.43-.6.27 0 .48.38.48 1.2zm5.2 6.6c1.06-2.02 4.82-8.4 5.8-9.12 0 4.63-2.86 8.96-5.8 9.12z" fill="#BAA480"/></svg>
