<svg fill="none" xmlns="http://www.w3.org/2000/svg" width="184" height="29" viewBox="0 0 184 29"><path fill-rule="evenodd" clip-rule="evenodd" d="M10.62 9.79c0 .4 1.84 1.19 2.97 1.19 2.16 0 4.5-2.9 4.5-5.98 0-2.93-2.1-5-5.04-5C7.18 0 0 8.4 0 15.14c0 4.52 3.25 8.34 7.1 8.34 2.74 0 5.72-1.92 8.32-5.11a7 7 0 00-.28 1.39c0 1.13 2.29 2.21 2.95 2.21.2 0 .32-.09.32-.38 0-1.28 2.5-5.66 4.88-8.72-.91 2.05-1.88 5.31-1.88 7.1 0 .94 1.79 2 3.65 2 .29 0 1.73-1.95 3.2-4.11.04 2.28 1.58 4.11 3.4 4.11 2.47 0 5.12-3.35 5.8-6.76.54 0 1.1-.1 1.63-.29-1.62 4.56-3.43 10.55-3.43 11.32 0 .85 2.21 2.35 3.26 2.35.3 0 .52-.15.52-.42 0-.17-.05-.24-.18-.24-.12 0-.2-.13-.2-.38 0-.96 1-3.93 2.42-6.9.39.55 2.14 1.32 3.23 1.32 2.8 0 5.96-5.16 5.96-10.02 0-.73-2-2.27-2.89-2.27-1.43 0-3.86 3.85-5.59 7.1.88-2.61 2.05-5.36 2.41-5.36.07 0 .14-.1.14-.19 0-.55-2.2-1.55-3.32-1.55-.29 0-1 1.63-1.84 3.88-.58.36-1.27.57-1.98.57.02-.18.02-.37.02-.55 0-.44-.04-.84-.11-1.17.03.02.09.03.14.03.18 0 .43-.22.43-.58 0-1.1-2.25-2.38-4.13-2.38-1.66 0-3.84 2.47-4.96 5.12-1.58 2.34-3.89 5.69-4.06 5.69-.04 0-.05-.11-.05-.3 0-2.08 2.35-8 3.05-8 .1 0 .23-.17.23-.35 0-.79-2.53-1.98-3.1-1.98-1.04 0-3.92 3.7-5.77 6.96 1.75-4.84 4.85-11.82 5.64-11.82.1 0 .2-.1.2-.24 0-.58-2.04-1.6-3.11-1.6-1.01 0-3.66 6.5-5.36 11.45-2.72 4.28-6.43 7.01-9.8 7.01-2.49 0-3.95-1.44-3.95-3.92 0-5.79 8.16-15.28 13.27-15.28 0 3.4-2.97 7.38-5.13 7.38-.32 0-.43.1-.43.19zm23.62 3.02a10.4 10.4 0 00-2.52 6.23c0 1.12.34 1.38.75 1.38 1.36 0 3.2-2.84 3.82-5.41-1.1-.37-1.92-1.21-2.05-2.2zm2.23 1.12c.02-.18.02-.35.02-.51 0-.85-.21-1.25-.48-1.25-.23 0-.43.24-.43.62 0 .5.34.9.9 1.14zm5.2 6.3c1.06-2.09 4.8-8.68 5.79-9.42 0 4.79-2.86 9.26-5.79 9.42zM54.9 16.8c1.73-3.26 4.16-7.11 5.59-7.11.89 0 2.89 1.54 2.89 2.27 0 4.86-3.16 10.02-5.97 10.02-1.09 0-2.84-.77-3.23-1.32-1.4 2.97-2.4 5.94-2.4 6.9 0 .25.06.38.19.38.12 0 .18.07.18.24 0 .27-.22.42-.52.42-1.05 0-3.27-1.5-3.27-2.35 0-1.26 4.88-16.56 5.77-16.56 1.12 0 3.32 1 3.32 1.55 0 .1-.07.19-.14.19-.36 0-1.54 2.75-2.41 5.37zm-.52 3.44c1.05-2.09 4.8-8.68 5.78-9.42 0 4.79-2.85 9.26-5.78 9.42zm19.18-7.7c0-1.48-1.83-2.87-3.42-2.87-2.85 0-6.39 4.49-6.39 7.79 0 2.54 2.1 4.52 4.07 4.52 1.84 0 3.81-1.68 5.45-3.6a6.29 6.29 0 00-.24 1.26c0 1.24 2.57 2.34 3.23 2.34.2 0 .33-.09.33-.38 0-1.25 2.35-5.43 4.7-8.47-.2.55-.31 1.14-.31 1.67 0 .77 2.23 2 3.64 2 .68 0 4.77-4.22 4.73-4.91-.01-.13-.21-.33-.43-.33-.26 0-.57.25-.78.5-.48.61-3.36 3.45-3.6 3.45-.04 0-.06-.05-.06-.2 0-1.04.87-3.17 1.5-3.17.2 0 .37-.22.37-.44 0-.82-2.53-2.01-3.14-2.01-1.02 0-3.78 3.57-5.66 6.78.91-2.51 2.09-5.02 2.45-5.02.05 0 .12-.1.12-.2 0-.68-2.36-1.56-3.18-1.56-.5 0-1.65 2.65-2.57 5.24-1.67 2.38-4.23 5.5-6.01 5.5-.8 0-1.3-.65-1.3-1.7 0-2.54 2.78-6.02 4.73-6.24-.32 2.25-2.61 3.81-3.77 3.81-.23 0-.36.06-.36.13 0 .24 1.06.77 1.77.77 1.4 0 4.13-2.13 4.13-4.65zm29.42-5.13c0 .3-.18.46-.3.46-.42 0-1.48 1.65-2.64 3.9 5.64-.42 9.46-2.4 9.46-5.1 0-2.22-2.6-3.68-6.68-3.68-6.06 0-11.48 3.2-11.48 6.83 0 1.46.85 2.61 2.05 2.61.47 0 .74.18.74.38 0 .23-.36.46-1.11.46-2.03 0-3.37-1.74-3.37-4.07 0-4.84 5.82-9.19 13.18-9.19 5.56 0 9.35 2.45 9.35 6.07 0 2.66-2.06 4.76-5.55 5.98 2.08.66 3.31 2.15 3.31 4.3 0 4.24-4.78 8.35-9.67 8.35-1.6 0-3.27-.6-4.82-1.68-.07.35-.1.65-.1.9 0 .59-.22.77-.54.77-.95 0-2.42-1.51-2.42-2.77 0-2.56 6.16-16.8 7.67-16.8 1.32 0 2.92 1.4 2.92 2.28zm.86 5.66c-1.42 0-3.1.32-4.95 1a60.3 60.3 0 00-3.08 7.54c.83.37 1.76.57 2.76.57 4.26 0 9.24-3.43 9.24-6.46 0-1.69-1.55-2.65-3.97-2.65zm20.03-9.28c-.92 0-3.83 6.68-5.6 11.52-1.59 2.21-3.83 5.25-4 5.25-.03 0-.05-.1-.05-.2 0-.86 2.2-7.96 2.89-7.96.07 0 .18-.1.18-.27 0-.7-1.94-1.86-2.96-1.86-.82 0-3.8 8.46-3.8 9.8 0 1.1 1.97 2.12 3.84 2.12.25 0 1.38-1.38 2.64-3.09-.12.44-.18.76-.18.95 0 1.08 2.3 2.14 2.94 2.14.2 0 .32-.09.32-.37 0-.67.7-2.18 1.72-3.9.38 2.21 2.61 4.27 4.85 4.27.3 0 1.7-1.8 3.15-3.83.28 2.2 2.2 3.83 4.04 3.83 2.65 0 5.56-3.35 7.39-5.91.35.62.83 1.28 1.39 1.9l-.8.4c-2.52 1.11-3.38 2.34-3.38 3.4 0 1.62 1.97 2.88 3.16 2.88 1.46 0 4.78-2.01 4.78-3.8 0-.78-.63-1.88-1.26-2.93 1.41-.8 2.95-1.74 4.26-2.56-.75 2.18-1.27 3.94-1.27 4.48 0 1.1 2.3 2.14 2.96 2.14.2 0 .32-.09.32-.37 0-1.24 2.5-5.48 4.89-8.45-.91 2-1.88 5.15-1.88 6.89 0 .9 1.79 1.93 3.65 1.93.3 0 1.74-1.88 3.22-3.98.04 2.2 1.58 3.98 3.42 3.98 2.47 0 5.12-3.24 5.8-6.55.55 0 1.1-.1 1.64-.28-1.63 4.42-3.44 10.22-3.44 10.97 0 .81 2.22 2.27 3.27 2.27.3 0 .52-.14.52-.4 0-.17-.05-.24-.17-.24-.13 0-.2-.12-.2-.37 0-.92 1-3.8 2.42-6.67.39.53 2.15 1.27 3.24 1.27 2.81 0 5.98-5 5.98-9.7 0-.71-2-2.2-2.9-2.2-1.44 0-3.87 3.72-5.6 6.88.87-2.54 2.05-5.2 2.41-5.2.07 0 .14-.09.14-.18 0-.53-2.2-1.5-3.33-1.5-.3 0-1.01 1.58-1.85 3.76-.58.34-1.27.55-1.99.55.02-.18.02-.36.02-.53 0-.43-.03-.82-.1-1.14.03.02.08.04.14.04.18 0 .43-.22.43-.57 0-1.07-2.26-2.31-4.14-2.31-1.67 0-3.86 2.4-4.98 4.96-1.58 2.27-3.9 5.51-4.07 5.51-.04 0-.06-.1-.06-.28 0-2.03 2.37-7.76 3.07-7.76.1 0 .23-.16.23-.34 0-.76-2.54-1.91-3.12-1.91-1.04 0-3.92 3.58-5.78 6.74 1.75-4.68 4.87-11.45 5.66-11.45.1 0 .2-.1.2-.23 0-.56-2.05-1.54-3.12-1.54-.95 0-3.34 5.5-5.04 10.12-1.46.94-3.57 2.23-5.44 3.26a3.67 3.67 0 01-.62-1.49c0-1.12 2.77-3.55 3.92-3.55.36 0 .75.25.75.55 0 .18.13.3.27.3.2 0 .43-.2.43-.72 0-1.55-2.02-2.83-3.24-2.83-1.94 0-5.43 3.23-5.43 5.06 0 .15.02.31.07.5-1.66 2.34-4.41 5.7-6.3 5.7-.8 0-1.3-.63-1.3-1.66 0-2.44 2.79-5.82 4.74-6.03-.32 2.18-2.61 3.7-3.78 3.7-.23 0-.36.05-.36.12 0 .23 1.06.74 1.78.74 1.4 0 4.13-2.06 4.13-4.5 0-1.44-1.82-2.8-3.42-2.8-2.28 0-4.99 2.76-6 5.5-1.53 2.16-3.45 4.8-3.6 4.8-.87 0-1.56-1.37-1.56-2.54 2.07 0 4.78-4.27 4.78-5.92 0-.52-2.19-1.83-2.89-1.83-1.14 0-4 3.48-5.87 6.6 1.79-4.69 4.92-11.38 5.7-11.38.1 0 .24-.14.24-.26 0-.46-2.05-1.44-3.11-1.44zm-5.67 5.68c0 .21-.04.35-.65.35-1.45 0-2.47-.85-2.47-2 0-1.47 1.61-4.03 2.6-4.03.68 0 2.6 1.19 2.6 1.74 0 .12-.13.27-.27.27-.65 0-1.81 2.52-1.81 3.67zm4.43 7.15a33.41 33.41 0 013.46-4.54c.02 0 .02.05.02.14 0 1.19-2 4.53-3.1 4.53a.73.73 0 01-.38-.13zM140 22.52c-.36 0-.6-.16-.6-.46 0-.5.7-1.37 2.9-2.41l.94-.48c.16.3.25.56.25.8 0 1.13-2.45 2.55-3.49 2.55zm24.74-3.18a9.89 9.89 0 012.53-6.03c.12.96.95 1.77 2.06 2.13-.63 2.48-2.48 5.23-3.84 5.23-.4 0-.75-.24-.75-1.33zm4.78-5.44l-.01.5c-.56-.24-.9-.63-.9-1.1 0-.38.2-.61.43-.61.27 0 .48.39.48 1.2zm5.2 6.6c1.06-2.03 4.82-8.41 5.8-9.12 0 4.63-2.86 8.96-5.8 9.12z" fill="#BAA480"/></svg>
