<svg fill="none" xmlns="http://www.w3.org/2000/svg" width="26" height="26" viewBox="0 0 26 26"><path fill-rule="evenodd" clip-rule="evenodd" d="M15.94 15.17l-.3-.3a7.04 7.04 0 10-.76.76l.29.3v.86l4.7 4.7a1 1 0 001.42 0l.2-.2a1 1 0 000-1.41l-4.7-4.71h-.85zM5.42 10.29a4.87 4.87 0 119.73-.01 4.87 4.87 0 01-9.73.01z" fill="#F2F5F7"/><mask id="a" maskUnits="userSpaceOnUse" x="3" y="3" width="19" height="19"><path fill-rule="evenodd" clip-rule="evenodd" d="M15.94 15.17l-.3-.3a7.04 7.04 0 10-.76.76l.29.3v.86l4.7 4.7a1 1 0 001.42 0l.2-.2a1 1 0 000-1.41l-4.7-4.71h-.85zM5.42 10.29a4.87 4.87 0 119.73-.01 4.87 4.87 0 01-9.73.01z" fill="#fff"/></mask><g mask="url(#a)"><path fill="#F2F5F7" d="M0 0h26v26H0z"/></g><path fill-rule="evenodd" clip-rule="evenodd" d="M10.83 7.58H9.75v2.17H7.58v1.08h2.17V13h1.08v-2.17H13V9.75h-2.17V7.58z" fill="#F2F5F7"/></svg>
