<svg fill="none" xmlns="http://www.w3.org/2000/svg" width="18" height="23" viewBox="0 0 18 23"><path fill-rule="evenodd" clip-rule="evenodd" d="M9 11.28c2.76 0 5-2.48 5-5.53C14 2.69 11.76.22 9 .22S4 2.69 4 5.75c0 3.05 2.24 5.53 5 5.53zm0-8.85c1.66 0 3 1.48 3 3.32 0 1.83-1.34 3.31-3 3.31S6 7.58 6 5.75C6 3.9 7.34 2.43 9 2.43zm9 18.8c0 .6-.45 1.1-1 1.1s-1-.5-1-1.1v-2.21c0-1.62-3.84-3.32-7-3.32s-7 1.7-7 3.32v2.2c0 .62-.45 1.11-1 1.11s-1-.5-1-1.1v-2.21c0-3.4 4.83-5.53 9-5.53s9 2.14 9 5.53v2.2z" fill="#9B8869"/></svg>
