<svg fill="none" xmlns="http://www.w3.org/2000/svg" width="22" height="13" viewBox="0 0 22 13"><path fill-rule="evenodd" clip-rule="evenodd" d="M10.47 12.55h1.28s.38-.04.58-.25c.18-.19.17-.55.17-.55s-.02-1.7.78-1.94c.78-.25 1.79 1.63 2.86 2.36.8.54 1.42.42 1.42.42l2.86-.04s1.5-.09.78-1.24c-.06-.1-.41-.86-2.12-2.43-1.8-1.63-1.55-1.37.6-4.2C21 2.95 21.52 1.9 21.36 1.44c-.16-.43-1.12-.31-1.12-.31l-3.22.02s-.24-.03-.42.07c-.17.1-.28.34-.28.34s-.5 1.34-1.19 2.47c-1.43 2.4-2 2.53-2.24 2.38-.54-.35-.4-1.4-.4-2.14 0-2.32.35-3.3-.7-3.54-.35-.09-.6-.14-1.5-.15-1.15-.01-2.12 0-2.67.27-.37.18-.65.57-.48.6.21.02.7.12.95.46.33.44.32 1.44.32 1.44s.19 2.73-.44 3.07c-.44.23-1.03-.24-2.3-2.42C5 2.9 4.5 1.66 4.5 1.66s-.1-.23-.26-.35c-.2-.15-.5-.2-.5-.2L.7 1.13s-.46.01-.63.2c-.15.18-.01.54-.01.54s2.4 5.52 5.1 8.3c2.49 2.55 5.3 2.38 5.3 2.38z" fill="#6A6454"/></svg>
